<mxfile host="app.diagrams.net" modified="2023-02-22T05:23:21.352Z" agent="5.0 (Windows NT 10.0; Win64; x64) AppleWebKit/537.36 (KHTML, like Gecko) Chrome/110.0.0.0 Safari/537.36 Edg/110.0.1587.50" etag="of1t1AYrDu5hnLAMTS4z" version="20.8.21" type="github">
  <diagram name="Page-1" id="e7e014a7-5840-1c2e-5031-d8a46d1fe8dd">
    <mxGraphModel dx="1035" dy="614" grid="1" gridSize="10" guides="1" tooltips="1" connect="1" arrows="1" fold="1" page="1" pageScale="1" pageWidth="1169" pageHeight="826" background="none" math="0" shadow="0">
      <root>
        <mxCell id="0" />
        <mxCell id="1" parent="0" />
        <mxCell id="2" value="Pengguna" style="swimlane;whiteSpace=wrap" parent="1" vertex="1">
          <mxGeometry x="100" y="128" width="344.5" height="1362" as="geometry" />
        </mxCell>
        <mxCell id="5" value="" style="ellipse;shape=startState;fillColor=#000000;strokeColor=#ff0000;" parent="2" vertex="1">
          <mxGeometry x="120" y="42" width="30" height="30" as="geometry" />
        </mxCell>
        <mxCell id="1VLDpneceEByT5zlAbpI-43" value="Penulisan Perintah / Typing Command&lt;br&gt;&amp;gt; node index.js" style="rounded=1;whiteSpace=wrap;html=1;" vertex="1" parent="2">
          <mxGeometry x="50" y="112" width="170" height="80" as="geometry" />
        </mxCell>
        <mxCell id="1VLDpneceEByT5zlAbpI-46" value="Memilih sebuah fitur" style="rounded=1;whiteSpace=wrap;html=1;" vertex="1" parent="2">
          <mxGeometry x="60" y="272" width="170" height="80" as="geometry" />
        </mxCell>
        <mxCell id="1VLDpneceEByT5zlAbpI-48" value="Input Username &amp;amp; Password" style="rounded=1;whiteSpace=wrap;html=1;" vertex="1" parent="2">
          <mxGeometry x="60" y="432" width="170" height="80" as="geometry" />
        </mxCell>
        <mxCell id="1VLDpneceEByT5zlAbpI-54" value="Input Target" style="rounded=1;whiteSpace=wrap;html=1;" vertex="1" parent="2">
          <mxGeometry x="60" y="552" width="170" height="80" as="geometry" />
        </mxCell>
        <mxCell id="1VLDpneceEByT5zlAbpI-56" value="" style="endArrow=classic;html=1;rounded=0;exitX=0.5;exitY=1;exitDx=0;exitDy=0;entryX=0.5;entryY=0;entryDx=0;entryDy=0;" edge="1" parent="2" source="5" target="1VLDpneceEByT5zlAbpI-43">
          <mxGeometry width="50" height="50" relative="1" as="geometry">
            <mxPoint x="480" y="82" as="sourcePoint" />
            <mxPoint x="530" y="32" as="targetPoint" />
          </mxGeometry>
        </mxCell>
        <mxCell id="1VLDpneceEByT5zlAbpI-70" value="Input Delay" style="rounded=1;whiteSpace=wrap;html=1;" vertex="1" parent="2">
          <mxGeometry x="60" y="802" width="170" height="80" as="geometry" />
        </mxCell>
        <mxCell id="3" value="Sistem" style="swimlane;whiteSpace=wrap;startSize=23;" parent="1" vertex="1">
          <mxGeometry x="444.5" y="128" width="415.5" height="1362" as="geometry" />
        </mxCell>
        <mxCell id="1VLDpneceEByT5zlAbpI-45" value="Menampilkan interface utama, yang berisi sebuah fitur" style="rounded=1;whiteSpace=wrap;html=1;" vertex="1" parent="3">
          <mxGeometry x="155.5" y="112" width="170" height="80" as="geometry" />
        </mxCell>
        <mxCell id="1VLDpneceEByT5zlAbpI-47" value="Login Instagram" style="rounded=1;whiteSpace=wrap;html=1;" vertex="1" parent="3">
          <mxGeometry x="155.5" y="272" width="170" height="80" as="geometry" />
        </mxCell>
        <mxCell id="1VLDpneceEByT5zlAbpI-50" value="Auth" style="rhombus;whiteSpace=wrap;html=1;" vertex="1" parent="3">
          <mxGeometry x="190" y="432" width="85.5" height="80" as="geometry" />
        </mxCell>
        <mxCell id="1VLDpneceEByT5zlAbpI-53" value="Checkpoint" style="text;html=1;strokeColor=none;fillColor=none;align=center;verticalAlign=middle;whiteSpace=wrap;rounded=0;" vertex="1" parent="3">
          <mxGeometry x="60" y="432" width="110" height="30" as="geometry" />
        </mxCell>
        <mxCell id="1VLDpneceEByT5zlAbpI-55" value="Tampilan Setting Target" style="rounded=1;whiteSpace=wrap;html=1;" vertex="1" parent="3">
          <mxGeometry x="140.5" y="552" width="170" height="80" as="geometry" />
        </mxCell>
        <mxCell id="1VLDpneceEByT5zlAbpI-63" value="" style="endArrow=classic;html=1;rounded=0;exitX=0.5;exitY=1;exitDx=0;exitDy=0;entryX=0.547;entryY=0.015;entryDx=0;entryDy=0;entryPerimeter=0;" edge="1" parent="3" source="1VLDpneceEByT5zlAbpI-50" target="1VLDpneceEByT5zlAbpI-55">
          <mxGeometry width="50" height="50" relative="1" as="geometry">
            <mxPoint x="135.5" y="372" as="sourcePoint" />
            <mxPoint x="185.5" y="322" as="targetPoint" />
          </mxGeometry>
        </mxCell>
        <mxCell id="1VLDpneceEByT5zlAbpI-64" value="Salah" style="text;html=1;strokeColor=none;fillColor=none;align=center;verticalAlign=middle;whiteSpace=wrap;rounded=0;" vertex="1" parent="3">
          <mxGeometry x="275.5" y="432" width="60" height="30" as="geometry" />
        </mxCell>
        <mxCell id="1VLDpneceEByT5zlAbpI-65" value="Benar" style="text;html=1;strokeColor=none;fillColor=none;align=center;verticalAlign=middle;whiteSpace=wrap;rounded=0;" vertex="1" parent="3">
          <mxGeometry x="165.5" y="522" width="60" height="30" as="geometry" />
        </mxCell>
        <mxCell id="1VLDpneceEByT5zlAbpI-66" value="Target diterima" style="rounded=1;whiteSpace=wrap;html=1;" vertex="1" parent="3">
          <mxGeometry x="140.5" y="682" width="170" height="80" as="geometry" />
        </mxCell>
        <mxCell id="1VLDpneceEByT5zlAbpI-69" value="Tampilan Setting Delay" style="rounded=1;whiteSpace=wrap;html=1;" vertex="1" parent="3">
          <mxGeometry x="140.5" y="802" width="170" height="80" as="geometry" />
        </mxCell>
        <mxCell id="1VLDpneceEByT5zlAbpI-71" value="Ambil data target" style="rounded=1;whiteSpace=wrap;html=1;" vertex="1" parent="3">
          <mxGeometry x="140.5" y="942" width="170" height="80" as="geometry" />
        </mxCell>
        <mxCell id="1VLDpneceEByT5zlAbpI-73" value="Bot Berjalan" style="rounded=1;whiteSpace=wrap;html=1;" vertex="1" parent="3">
          <mxGeometry x="140.5" y="1052" width="170" height="80" as="geometry" />
        </mxCell>
        <mxCell id="1VLDpneceEByT5zlAbpI-75" value="" style="endArrow=classic;html=1;rounded=0;entryX=0.5;entryY=0;entryDx=0;entryDy=0;exitX=0.5;exitY=1;exitDx=0;exitDy=0;" edge="1" parent="3" source="1VLDpneceEByT5zlAbpI-66" target="1VLDpneceEByT5zlAbpI-69">
          <mxGeometry width="50" height="50" relative="1" as="geometry">
            <mxPoint x="95.5" y="742" as="sourcePoint" />
            <mxPoint x="145.5" y="692" as="targetPoint" />
          </mxGeometry>
        </mxCell>
        <mxCell id="1VLDpneceEByT5zlAbpI-78" value="" style="endArrow=classic;html=1;rounded=0;exitX=0.5;exitY=1;exitDx=0;exitDy=0;entryX=0.5;entryY=0;entryDx=0;entryDy=0;" edge="1" parent="3" source="1VLDpneceEByT5zlAbpI-71" target="1VLDpneceEByT5zlAbpI-73">
          <mxGeometry width="50" height="50" relative="1" as="geometry">
            <mxPoint x="95.5" y="1122" as="sourcePoint" />
            <mxPoint x="145.5" y="1072" as="targetPoint" />
          </mxGeometry>
        </mxCell>
        <mxCell id="1VLDpneceEByT5zlAbpI-72" value="Menampilkan hasil" style="rounded=1;whiteSpace=wrap;html=1;" vertex="1" parent="3">
          <mxGeometry x="140.5" y="1172" width="170" height="80" as="geometry" />
        </mxCell>
        <mxCell id="1VLDpneceEByT5zlAbpI-79" value="" style="endArrow=classic;html=1;rounded=0;exitX=0.5;exitY=1;exitDx=0;exitDy=0;entryX=0.5;entryY=0;entryDx=0;entryDy=0;" edge="1" parent="3" source="1VLDpneceEByT5zlAbpI-73" target="1VLDpneceEByT5zlAbpI-72">
          <mxGeometry width="50" height="50" relative="1" as="geometry">
            <mxPoint x="95.5" y="1322" as="sourcePoint" />
            <mxPoint x="145.5" y="1272" as="targetPoint" />
          </mxGeometry>
        </mxCell>
        <mxCell id="1VLDpneceEByT5zlAbpI-80" value="" style="ellipse;shape=startState;fillColor=#000000;strokeColor=#ff0000;" vertex="1" parent="3">
          <mxGeometry x="210.5" y="1292" width="30" height="30" as="geometry" />
        </mxCell>
        <mxCell id="1VLDpneceEByT5zlAbpI-81" value="" style="endArrow=classic;html=1;rounded=0;exitX=0.5;exitY=1;exitDx=0;exitDy=0;entryX=0.5;entryY=0;entryDx=0;entryDy=0;" edge="1" parent="3" source="1VLDpneceEByT5zlAbpI-72" target="1VLDpneceEByT5zlAbpI-80">
          <mxGeometry width="50" height="50" relative="1" as="geometry">
            <mxPoint x="95.5" y="1222" as="sourcePoint" />
            <mxPoint x="145.5" y="1172" as="targetPoint" />
          </mxGeometry>
        </mxCell>
        <mxCell id="1VLDpneceEByT5zlAbpI-57" value="" style="endArrow=classic;html=1;rounded=0;exitX=1;exitY=0.5;exitDx=0;exitDy=0;entryX=0;entryY=0.5;entryDx=0;entryDy=0;" edge="1" parent="1" source="1VLDpneceEByT5zlAbpI-43" target="1VLDpneceEByT5zlAbpI-45">
          <mxGeometry width="50" height="50" relative="1" as="geometry">
            <mxPoint x="580" y="210" as="sourcePoint" />
            <mxPoint x="630" y="160" as="targetPoint" />
          </mxGeometry>
        </mxCell>
        <mxCell id="1VLDpneceEByT5zlAbpI-58" value="" style="endArrow=classic;html=1;rounded=0;exitX=0.5;exitY=1;exitDx=0;exitDy=0;entryX=0.5;entryY=0;entryDx=0;entryDy=0;edgeStyle=orthogonalEdgeStyle;" edge="1" parent="1" source="1VLDpneceEByT5zlAbpI-45" target="1VLDpneceEByT5zlAbpI-46">
          <mxGeometry width="50" height="50" relative="1" as="geometry">
            <mxPoint x="580" y="210" as="sourcePoint" />
            <mxPoint x="630" y="160" as="targetPoint" />
          </mxGeometry>
        </mxCell>
        <mxCell id="1VLDpneceEByT5zlAbpI-59" value="" style="endArrow=classic;html=1;rounded=0;exitX=1;exitY=0.5;exitDx=0;exitDy=0;" edge="1" parent="1" source="1VLDpneceEByT5zlAbpI-48">
          <mxGeometry width="50" height="50" relative="1" as="geometry">
            <mxPoint x="580" y="210" as="sourcePoint" />
            <mxPoint x="630" y="600" as="targetPoint" />
          </mxGeometry>
        </mxCell>
        <mxCell id="1VLDpneceEByT5zlAbpI-60" value="" style="endArrow=classic;html=1;rounded=0;exitX=1;exitY=0.5;exitDx=0;exitDy=0;entryX=0;entryY=0.5;entryDx=0;entryDy=0;" edge="1" parent="1" source="1VLDpneceEByT5zlAbpI-46" target="1VLDpneceEByT5zlAbpI-47">
          <mxGeometry width="50" height="50" relative="1" as="geometry">
            <mxPoint x="580" y="410" as="sourcePoint" />
            <mxPoint x="630" y="360" as="targetPoint" />
          </mxGeometry>
        </mxCell>
        <mxCell id="1VLDpneceEByT5zlAbpI-61" value="" style="endArrow=classic;html=1;rounded=0;exitX=0.5;exitY=1;exitDx=0;exitDy=0;entryX=0.5;entryY=0;entryDx=0;entryDy=0;edgeStyle=orthogonalEdgeStyle;" edge="1" parent="1" source="1VLDpneceEByT5zlAbpI-47" target="1VLDpneceEByT5zlAbpI-48">
          <mxGeometry width="50" height="50" relative="1" as="geometry">
            <mxPoint x="580" y="410" as="sourcePoint" />
            <mxPoint x="630" y="360" as="targetPoint" />
          </mxGeometry>
        </mxCell>
        <mxCell id="1VLDpneceEByT5zlAbpI-62" value="" style="endArrow=classic;html=1;rounded=0;exitX=1;exitY=0.5;exitDx=0;exitDy=0;entryX=1;entryY=0.5;entryDx=0;entryDy=0;edgeStyle=orthogonalEdgeStyle;" edge="1" parent="1" source="1VLDpneceEByT5zlAbpI-50" target="5">
          <mxGeometry width="50" height="50" relative="1" as="geometry">
            <mxPoint x="580" y="500" as="sourcePoint" />
            <mxPoint x="630" y="450" as="targetPoint" />
            <Array as="points">
              <mxPoint x="800" y="600" />
              <mxPoint x="800" y="185" />
            </Array>
          </mxGeometry>
        </mxCell>
        <mxCell id="1VLDpneceEByT5zlAbpI-68" value="" style="endArrow=classic;html=1;rounded=0;exitX=0;exitY=0.5;exitDx=0;exitDy=0;entryX=1;entryY=0.5;entryDx=0;entryDy=0;" edge="1" parent="1" source="1VLDpneceEByT5zlAbpI-55" target="1VLDpneceEByT5zlAbpI-54">
          <mxGeometry width="50" height="50" relative="1" as="geometry">
            <mxPoint x="580" y="830" as="sourcePoint" />
            <mxPoint x="630" y="780" as="targetPoint" />
          </mxGeometry>
        </mxCell>
        <mxCell id="1VLDpneceEByT5zlAbpI-74" value="" style="endArrow=classic;html=1;rounded=0;exitX=0.569;exitY=1.079;exitDx=0;exitDy=0;exitPerimeter=0;entryX=0;entryY=0.5;entryDx=0;entryDy=0;edgeStyle=orthogonalEdgeStyle;" edge="1" parent="1" source="1VLDpneceEByT5zlAbpI-54" target="1VLDpneceEByT5zlAbpI-66">
          <mxGeometry width="50" height="50" relative="1" as="geometry">
            <mxPoint x="540" y="870" as="sourcePoint" />
            <mxPoint x="590" y="820" as="targetPoint" />
            <Array as="points">
              <mxPoint x="257" y="850" />
            </Array>
          </mxGeometry>
        </mxCell>
        <mxCell id="1VLDpneceEByT5zlAbpI-76" value="" style="endArrow=classic;html=1;rounded=0;exitX=0;exitY=0.5;exitDx=0;exitDy=0;entryX=1;entryY=0.5;entryDx=0;entryDy=0;" edge="1" parent="1" source="1VLDpneceEByT5zlAbpI-69" target="1VLDpneceEByT5zlAbpI-70">
          <mxGeometry width="50" height="50" relative="1" as="geometry">
            <mxPoint x="540" y="870" as="sourcePoint" />
            <mxPoint x="590" y="820" as="targetPoint" />
          </mxGeometry>
        </mxCell>
        <mxCell id="1VLDpneceEByT5zlAbpI-77" value="" style="endArrow=classic;html=1;rounded=0;exitX=0.5;exitY=1;exitDx=0;exitDy=0;entryX=0;entryY=0.5;entryDx=0;entryDy=0;edgeStyle=orthogonalEdgeStyle;" edge="1" parent="1" source="1VLDpneceEByT5zlAbpI-70" target="1VLDpneceEByT5zlAbpI-71">
          <mxGeometry width="50" height="50" relative="1" as="geometry">
            <mxPoint x="540" y="1250" as="sourcePoint" />
            <mxPoint x="590" y="1200" as="targetPoint" />
          </mxGeometry>
        </mxCell>
      </root>
    </mxGraphModel>
  </diagram>
</mxfile>
